<svg width="34" height="34" viewBox="0 0 34 34" fill="none" xmlns="http://www.w3.org/2000/svg">
<path d="M3.42292 31.7333H28.3562C29.6081 31.7333 30.6229 30.7185 30.6229 29.4667V4.53333C30.6229 3.28148 29.6081 2.26666 28.3562 2.26666H3.42292C2.17107 2.26666 1.15625 3.28148 1.15625 4.53333V29.4667C1.15625 30.7185 2.17107 31.7333 3.42292 31.7333Z" stroke="white" stroke-width="2.26667" stroke-linecap="round" stroke-linejoin="round"/>
<path d="M20.9667 15.8667C23.1574 15.8667 24.9333 14.0907 24.9333 11.9C24.9333 9.70927 23.1574 7.93333 20.9667 7.93333C18.7759 7.93333 17 9.70927 17 11.9C17 14.0907 18.7759 15.8667 20.9667 15.8667Z" stroke="white" stroke-width="2.26667" stroke-linecap="round" stroke-linejoin="round"/>
<path d="M21.3066 31.7333C20.5768 27.846 18.4895 24.3445 15.4172 21.8534C12.345 19.3624 8.48755 18.0439 4.5333 18.1334C3.39244 18.1303 2.2539 18.2366 1.1333 18.4507" stroke="white" stroke-width="2.26667" stroke-linecap="round" stroke-linejoin="round"/>
<path d="M30.6002 23.596C28.7746 22.9795 26.8604 22.6656 24.9335 22.6667C22.4945 22.6614 20.0801 23.155 17.8389 24.1173" stroke="white" stroke-width="2.26667" stroke-linecap="round" stroke-linejoin="round"/>
</svg>
